<svg xmlns="http://www.w3.org/2000/svg" xmlns:xlink="http://www.w3.org/1999/xlink" width="1080" zoomAndPan="magnify" viewBox="0 0 810 809.999993" height="1080" preserveAspectRatio="xMidYMid meet" version="1.0"><path fill="#243c5f" d="M 337.5 219.375 C 337.5 154.238281 284.511719 101.25 219.375 101.25 C 154.238281 101.25 101.25 154.238281 101.25 219.375 C 101.25 284.511719 154.238281 337.5 219.375 337.5 C 228.882812 337.433594 238.238281 336.222656 247.449219 333.863281 C 256.65625 331.507812 265.445312 328.070312 273.8125 323.5625 L 353.363281 408.882812 L 275.128906 487.113281 C 266.59375 482.386719 257.605469 478.785156 248.167969 476.3125 C 238.730469 473.839844 229.132812 472.566406 219.375 472.5 C 154.238281 472.5 101.25 525.488281 101.25 590.625 C 101.25 655.761719 154.238281 708.75 219.375 708.75 C 284.511719 708.75 337.5 655.761719 337.5 590.625 C 337.5 570.339844 331.898438 551.542969 322.851562 534.871094 L 399.429688 458.324219 L 573.75 645.332031 C 576.09375 647.679688 578.546875 649.902344 581.109375 652.007812 C 583.671875 654.109375 586.332031 656.085938 589.089844 657.925781 C 591.847656 659.769531 594.6875 661.472656 597.609375 663.035156 C 600.535156 664.601562 603.527344 666.015625 606.589844 667.285156 C 609.65625 668.554688 612.773438 669.671875 615.945312 670.632812 C 619.117188 671.597656 622.332031 672.402344 625.582031 673.050781 C 628.835938 673.699219 632.109375 674.183594 635.410156 674.511719 C 638.710938 674.835938 642.019531 675 645.332031 675 L 742.5 675 L 315.5625 287.484375 C 329.265625 268.175781 337.5 244.789062 337.5 219.375 Z M 219.375 270 C 191.464844 270 168.75 247.285156 168.75 219.375 C 168.75 191.464844 191.464844 168.75 219.375 168.75 C 247.285156 168.75 270 191.464844 270 219.375 C 270 247.285156 247.285156 270 219.375 270 Z M 219.375 641.25 C 191.464844 641.25 168.75 618.535156 168.75 590.625 C 168.75 562.714844 191.464844 540 219.375 540 C 247.285156 540 270 562.714844 270 590.625 C 270 618.535156 247.285156 641.25 219.375 641.25 Z M 219.375 641.25 " fill-opacity="1" fill-rule="nonzero"/><path fill="#243c5f" d="M 573.75 164.667969 L 448.640625 313.640625 L 496.359375 361.359375 L 742.5 135 L 645.332031 135 C 642.019531 135 638.710938 135.164062 635.410156 135.488281 C 632.109375 135.816406 628.835938 136.300781 625.582031 136.949219 C 622.332031 137.597656 619.117188 138.402344 615.945312 139.367188 C 612.773438 140.328125 609.65625 141.445312 606.589844 142.714844 C 603.527344 143.984375 600.535156 145.398438 597.609375 146.964844 C 594.6875 148.527344 591.847656 150.230469 589.089844 152.074219 C 586.332031 153.914062 583.671875 155.890625 581.109375 157.992188 C 578.546875 160.097656 576.09375 162.320312 573.75 164.667969 Z M 573.75 164.667969 " fill-opacity="1" fill-rule="nonzero"/></svg>