<svg xmlns="http://www.w3.org/2000/svg" xmlns:xlink="http://www.w3.org/1999/xlink" width="1080" zoomAndPan="magnify" viewBox="0 0 810 809.999993" height="1080" preserveAspectRatio="xMidYMid meet" version="1.0"><path fill="#243c5f" d="M 572.738281 160.546875 C 572.300781 158.785156 571.722656 157.070312 571.007812 155.402344 C 570.292969 153.734375 569.449219 152.132812 568.476562 150.601562 C 567.503906 149.070312 566.414062 147.625 565.207031 146.269531 C 564.003906 144.910156 562.695312 143.660156 561.285156 142.515625 C 559.878906 141.371094 558.386719 140.34375 556.8125 139.441406 C 555.238281 138.535156 553.601562 137.765625 551.90625 137.125 C 550.207031 136.484375 548.464844 135.984375 546.6875 135.625 C 544.90625 135.265625 543.113281 135.050781 541.296875 134.984375 C 539.484375 134.914062 537.675781 134.992188 535.875 135.214844 C 534.074219 135.4375 532.300781 135.800781 530.558594 136.3125 C 528.816406 136.820312 527.125 137.464844 525.488281 138.25 C 523.847656 139.03125 522.285156 139.9375 520.792969 140.972656 C 519.300781 142.007812 517.902344 143.15625 516.597656 144.417969 C 515.292969 145.679688 514.09375 147.035156 513.007812 148.488281 C 511.921875 149.945312 510.957031 151.476562 510.117188 153.085938 C 509.28125 154.695312 508.574219 156.363281 508.003906 158.085938 L 400.476562 480.53125 L 300.847656 256.296875 C 300.171875 254.792969 299.394531 253.347656 298.507812 251.957031 C 297.621094 250.566406 296.636719 249.25 295.558594 248.003906 C 294.480469 246.757812 293.316406 245.597656 292.070312 244.519531 C 290.820312 243.445312 289.5 242.464844 288.109375 241.582031 C 286.714844 240.699219 285.269531 239.921875 283.761719 239.25 C 282.257812 238.578125 280.710938 238.019531 279.125 237.578125 C 277.539062 237.132812 275.925781 236.804688 274.292969 236.59375 C 272.65625 236.382812 271.015625 236.296875 269.367188 236.324219 C 267.71875 236.355469 266.082031 236.507812 264.457031 236.777344 C 262.832031 237.046875 261.234375 237.433594 259.664062 237.933594 C 258.09375 238.4375 256.570312 239.054688 255.089844 239.78125 C 253.609375 240.503906 252.191406 241.335938 250.832031 242.269531 C 249.476562 243.203125 248.191406 244.230469 246.984375 245.351562 C 245.777344 246.472656 244.65625 247.675781 243.625 248.960938 C 242.59375 250.246094 241.660156 251.601562 240.824219 253.019531 C 239.992188 254.441406 239.265625 255.917969 238.644531 257.445312 L 179.652344 405 L 67.5 405 L 67.5 472.5 L 179.652344 472.5 C 207.425781 472.5 232.03125 455.828125 242.292969 430.078125 L 271.621094 356.769531 L 374.117188 587.453125 C 379.585938 599.703125 391.703125 607.5 405 607.5 L 406.621094 607.464844 C 408.308594 607.386719 409.984375 607.179688 411.644531 606.847656 C 413.304688 606.515625 414.925781 606.058594 416.519531 605.480469 C 418.109375 604.902344 419.648438 604.210938 421.132812 603.402344 C 422.617188 602.59375 424.035156 601.675781 425.382812 600.652344 C 426.730469 599.628906 427.996094 598.511719 429.175781 597.296875 C 430.355469 596.085938 431.4375 594.789062 432.417969 593.414062 C 433.402344 592.039062 434.28125 590.59375 435.046875 589.085938 C 435.8125 587.578125 436.460938 586.019531 436.996094 584.414062 L 535.34375 289.371094 L 568.382812 421.367188 C 568.832031 423.179688 569.355469 424.96875 569.953125 426.738281 C 570.550781 428.503906 571.222656 430.246094 571.964844 431.957031 C 572.707031 433.667969 573.519531 435.347656 574.402344 436.992188 C 575.285156 438.636719 576.230469 440.242188 577.246094 441.808594 C 578.261719 443.375 579.339844 444.894531 580.484375 446.371094 C 581.625 447.847656 582.828125 449.273438 584.085938 450.648438 C 585.347656 452.023438 586.664062 453.347656 588.035156 454.613281 C 589.402344 455.878906 590.824219 457.085938 592.296875 458.234375 C 593.765625 459.382812 595.28125 460.46875 596.84375 461.492188 C 598.40625 462.515625 600.003906 463.472656 601.644531 464.359375 C 603.285156 465.25 604.960938 466.070312 606.671875 466.820312 C 608.378906 467.570312 610.117188 468.25 611.878906 468.855469 C 613.644531 469.460938 615.433594 469.992188 617.242188 470.449219 C 619.050781 470.90625 620.875 471.285156 622.71875 471.59375 C 624.558594 471.898438 626.410156 472.125 628.269531 472.277344 C 630.128906 472.429688 631.992188 472.503906 633.859375 472.5 L 742.5 472.5 L 742.5 405 L 633.824219 405 Z M 572.738281 160.546875 " fill-opacity="1" fill-rule="nonzero"/></svg>