<svg xmlns="http://www.w3.org/2000/svg" xmlns:xlink="http://www.w3.org/1999/xlink" width="1080" zoomAndPan="magnify" viewBox="0 0 810 809.999993" height="1080" preserveAspectRatio="xMidYMid meet" version="1.0"><path fill="#243c5f" d="M 636.253906 173.746094 C 636.09375 170.316406 635.777344 166.902344 635.304688 163.5 C 634.828125 160.101562 634.199219 156.730469 633.417969 153.390625 C 632.632812 150.046875 631.695312 146.746094 630.609375 143.492188 C 629.523438 140.234375 628.285156 137.035156 626.90625 133.894531 C 625.523438 130.753906 624 127.679688 622.335938 124.675781 C 620.671875 121.675781 618.871094 118.757812 616.9375 115.917969 C 615.007812 113.082031 612.945312 110.339844 610.761719 107.691406 C 608.578125 105.046875 606.273438 102.503906 603.855469 100.070312 C 602.554688 98.753906 601.226562 97.472656 599.863281 96.226562 C 598.5 94.980469 597.109375 93.765625 595.6875 92.585938 C 594.265625 91.40625 592.8125 90.261719 591.335938 89.15625 C 589.855469 88.046875 588.351562 86.976562 586.820312 85.941406 C 585.289062 84.910156 583.734375 83.914062 582.152344 82.957031 C 580.574219 82 578.96875 81.082031 577.34375 80.203125 C 575.71875 79.324219 574.074219 78.488281 572.40625 77.691406 C 570.738281 76.894531 569.054688 76.136719 567.351562 75.421875 C 565.644531 74.710938 563.925781 74.039062 562.1875 73.410156 C 560.453125 72.78125 558.699219 72.195312 556.933594 71.652344 C 555.167969 71.109375 553.390625 70.609375 551.597656 70.152344 C 549.808594 69.699219 548.007812 69.289062 546.199219 68.921875 C 544.386719 68.554688 542.566406 68.230469 540.742188 67.957031 C 538.914062 67.679688 537.082031 67.445312 535.246094 67.261719 C 533.40625 67.074219 531.566406 66.933594 529.71875 66.835938 C 527.875 66.738281 526.027344 66.691406 524.179688 66.683594 C 522.332031 66.679688 520.488281 66.71875 518.640625 66.804688 C 516.796875 66.890625 514.953125 67.023438 513.113281 67.199219 C 511.277344 67.378906 509.441406 67.597656 507.613281 67.867188 C 505.785156 68.132812 503.964844 68.445312 502.152344 68.800781 C 500.339844 69.160156 498.535156 69.558594 496.742188 70.007812 C 494.949219 70.453125 493.171875 70.941406 491.402344 71.472656 C 489.632812 72.007812 487.878906 72.585938 486.136719 73.203125 C 484.398438 73.824219 482.671875 74.488281 480.964844 75.191406 C 479.257812 75.894531 477.566406 76.644531 475.898438 77.429688 C 474.226562 78.21875 472.574219 79.046875 470.945312 79.917969 C 469.316406 80.785156 467.707031 81.695312 466.121094 82.644531 C 464.535156 83.59375 462.976562 84.578125 461.4375 85.605469 C 459.902344 86.628906 458.390625 87.691406 456.90625 88.792969 C 455.421875 89.894531 453.964844 91.027344 452.539062 92.199219 C 451.109375 93.371094 449.710938 94.578125 448.339844 95.820312 C 446.972656 97.058594 445.632812 98.332031 444.328125 99.640625 C 443.023438 100.945312 441.75 102.285156 440.507812 103.652344 C 439.269531 105.023438 438.0625 106.421875 436.890625 107.851562 C 435.71875 109.277344 434.585938 110.734375 433.484375 112.21875 C 432.386719 113.707031 431.324219 115.214844 430.296875 116.753906 C 429.273438 118.289062 428.285156 119.851562 427.335938 121.4375 C 426.390625 123.023438 425.480469 124.628906 424.609375 126.261719 C 423.742188 127.890625 422.914062 129.542969 422.125 131.214844 C 421.339844 132.882812 420.59375 134.574219 419.886719 136.28125 C 419.183594 137.988281 418.523438 139.714844 417.902344 141.453125 C 417.28125 143.195312 416.707031 144.949219 416.171875 146.71875 C 415.640625 148.488281 415.152344 150.269531 414.707031 152.0625 C 414.261719 153.855469 413.859375 155.65625 413.503906 157.46875 C 413.148438 159.285156 412.835938 161.105469 412.570312 162.933594 C 412.300781 164.761719 412.082031 166.59375 411.902344 168.433594 C 411.726562 170.273438 411.597656 172.113281 411.511719 173.960938 C 411.425781 175.804688 411.386719 177.652344 411.390625 179.5 C 411.394531 181.347656 411.445312 183.191406 411.542969 185.039062 C 411.640625 186.882812 411.78125 188.722656 411.96875 190.5625 C 412.15625 192.402344 412.386719 194.234375 412.664062 196.058594 C 412.941406 197.886719 413.265625 199.703125 413.632812 201.515625 C 413.996094 203.324219 414.410156 205.125 414.863281 206.917969 C 415.320312 208.707031 415.820312 210.484375 416.363281 212.25 C 416.90625 214.015625 417.492188 215.769531 418.121094 217.503906 C 418.753906 219.242188 419.425781 220.964844 420.136719 222.667969 C 420.851562 224.371094 421.609375 226.054688 422.40625 227.722656 C 423.203125 229.390625 424.042969 231.035156 424.917969 232.660156 C 425.796875 234.285156 426.714844 235.886719 427.671875 237.46875 C 428.632812 239.046875 429.625 240.605469 430.660156 242.136719 C 431.695312 243.664062 432.765625 245.171875 433.875 246.648438 C 434.984375 248.128906 436.125 249.578125 437.304688 251 C 438.484375 252.421875 439.699219 253.8125 440.949219 255.175781 C 442.195312 256.535156 443.476562 257.867188 444.792969 259.167969 L 259.199219 444.792969 C 257.902344 443.476562 256.570312 442.195312 255.207031 440.949219 C 253.847656 439.699219 252.453125 438.484375 251.03125 437.304688 C 249.609375 436.125 248.160156 434.984375 246.683594 433.875 C 245.203125 432.765625 243.699219 431.695312 242.167969 430.660156 C 240.636719 429.625 239.082031 428.632812 237.503906 427.671875 C 235.921875 426.714844 234.320312 425.796875 232.695312 424.917969 C 231.070312 424.042969 229.421875 423.203125 227.757812 422.40625 C 226.089844 421.609375 224.40625 420.851562 222.699219 420.136719 C 220.996094 419.425781 219.277344 418.753906 217.539062 418.121094 C 215.800781 417.492188 214.050781 416.90625 212.285156 416.363281 C 210.519531 415.820312 208.742188 415.320312 206.949219 414.863281 C 205.160156 414.410156 203.359375 413.996094 201.550781 413.632812 C 199.738281 413.265625 197.917969 412.941406 196.09375 412.664062 C 194.265625 412.386719 192.433594 412.15625 190.597656 411.96875 C 188.757812 411.78125 186.917969 411.640625 185.070312 411.542969 C 183.226562 411.445312 181.378906 411.394531 179.53125 411.390625 C 177.683594 411.386719 175.839844 411.425781 173.992188 411.511719 C 172.148438 411.597656 170.304688 411.726562 168.464844 411.902344 C 166.628906 412.082031 164.792969 412.300781 162.964844 412.570312 C 161.136719 412.835938 159.316406 413.148438 157.503906 413.503906 C 155.691406 413.859375 153.886719 414.261719 152.09375 414.707031 C 150.300781 415.152344 148.519531 415.640625 146.753906 416.171875 C 144.984375 416.707031 143.230469 417.28125 141.488281 417.902344 C 139.746094 418.523438 138.023438 419.183594 136.316406 419.886719 C 134.609375 420.59375 132.917969 421.339844 131.246094 422.125 C 129.574219 422.914062 127.925781 423.742188 126.292969 424.609375 C 124.664062 425.480469 123.054688 426.390625 121.46875 427.335938 C 119.886719 428.285156 118.324219 429.273438 116.785156 430.296875 C 115.25 431.324219 113.738281 432.386719 112.253906 433.484375 C 110.769531 434.585938 109.3125 435.71875 107.882812 436.890625 C 106.457031 438.0625 105.054688 439.269531 103.6875 440.507812 C 102.316406 441.75 100.980469 443.023438 99.671875 444.328125 C 98.367188 445.636719 97.09375 446.972656 95.851562 448.339844 C 94.613281 449.710938 93.40625 451.109375 92.234375 452.539062 C 91.0625 453.964844 89.925781 455.421875 88.828125 456.90625 C 87.726562 458.390625 86.664062 459.902344 85.640625 461.4375 C 84.613281 462.976562 83.625 464.535156 82.675781 466.121094 C 81.730469 467.707031 80.820312 469.316406 79.949219 470.945312 C 79.082031 472.574219 78.253906 474.226562 77.464844 475.898438 C 76.675781 477.566406 75.929688 479.257812 75.226562 480.964844 C 74.519531 482.671875 73.859375 484.398438 73.238281 486.136719 C 72.617188 487.878906 72.042969 489.632812 71.507812 491.402344 C 70.976562 493.171875 70.484375 494.953125 70.039062 496.746094 C 69.59375 498.539062 69.191406 500.339844 68.835938 502.152344 C 68.480469 503.964844 68.167969 505.785156 67.898438 507.613281 C 67.632812 509.441406 67.410156 511.277344 67.234375 513.113281 C 67.058594 514.953125 66.925781 516.796875 66.839844 518.640625 C 66.753906 520.488281 66.714844 522.332031 66.71875 524.179688 C 66.722656 526.027344 66.773438 527.875 66.871094 529.71875 C 66.964844 531.566406 67.105469 533.40625 67.292969 535.246094 C 67.480469 537.082031 67.710938 538.914062 67.988281 540.742188 C 68.265625 542.566406 68.585938 544.386719 68.953125 546.199219 C 69.320312 548.007812 69.730469 549.808594 70.1875 551.597656 C 70.640625 553.390625 71.140625 555.167969 71.683594 556.933594 C 72.226562 558.699219 72.8125 560.453125 73.441406 562.1875 C 74.070312 563.925781 74.742188 565.644531 75.457031 567.351562 C 76.171875 569.054688 76.925781 570.738281 77.722656 572.40625 C 78.519531 574.074219 79.359375 575.71875 80.238281 577.34375 C 81.113281 578.96875 82.03125 580.574219 82.988281 582.152344 C 83.945312 583.734375 84.941406 585.289062 85.976562 586.820312 C 87.007812 588.351562 88.082031 589.855469 89.1875 591.335938 C 90.296875 592.8125 91.441406 594.265625 92.621094 595.6875 C 93.796875 597.109375 95.011719 598.5 96.261719 599.863281 C 97.507812 601.226562 98.789062 602.554688 100.101562 603.855469 C 120.554688 624.308594 147.015625 634.835938 173.777344 636.253906 C 175.195312 663.019531 185.726562 689.445312 206.179688 709.929688 C 207.476562 711.246094 208.808594 712.527344 210.171875 713.773438 C 211.535156 715.019531 212.925781 716.234375 214.347656 717.414062 C 215.769531 718.59375 217.21875 719.738281 218.699219 720.84375 C 220.175781 721.953125 221.683594 723.023438 223.214844 724.058594 C 224.746094 725.09375 226.300781 726.085938 227.878906 727.042969 C 229.460938 728 231.0625 728.917969 232.6875 729.796875 C 234.3125 730.675781 235.960938 731.511719 237.628906 732.308594 C 239.292969 733.109375 240.980469 733.863281 242.683594 734.578125 C 244.386719 735.292969 246.109375 735.960938 247.84375 736.59375 C 249.582031 737.222656 251.332031 737.808594 253.097656 738.351562 C 254.867188 738.894531 256.644531 739.390625 258.433594 739.847656 C 260.226562 740.304688 262.027344 740.714844 263.835938 741.082031 C 265.648438 741.449219 267.464844 741.769531 269.292969 742.046875 C 271.121094 742.324219 272.953125 742.554688 274.789062 742.742188 C 276.628906 742.929688 278.46875 743.070312 280.3125 743.164062 C 282.160156 743.261719 284.003906 743.3125 285.851562 743.316406 C 287.699219 743.320312 289.546875 743.28125 291.394531 743.195312 C 293.238281 743.109375 295.082031 742.976562 296.917969 742.800781 C 298.757812 742.625 300.59375 742.402344 302.421875 742.136719 C 304.25 741.867188 306.070312 741.554688 307.882812 741.199219 C 309.695312 740.84375 311.496094 740.441406 313.289062 739.996094 C 315.082031 739.550781 316.863281 739.0625 318.632812 738.527344 C 320.402344 737.992188 322.15625 737.417969 323.898438 736.796875 C 325.636719 736.175781 327.363281 735.515625 329.070312 734.808594 C 330.777344 734.105469 332.46875 733.359375 334.136719 732.570312 C 335.808594 731.78125 337.460938 730.953125 339.089844 730.085938 C 340.71875 729.214844 342.328125 728.304688 343.914062 727.359375 C 345.5 726.410156 347.058594 725.421875 348.597656 724.398438 C 350.132812 723.371094 351.644531 722.308594 353.128906 721.207031 C 354.613281 720.109375 356.070312 718.972656 357.496094 717.800781 C 358.925781 716.628906 360.324219 715.421875 361.695312 714.183594 C 363.0625 712.941406 364.402344 711.667969 365.707031 710.363281 C 367.011719 709.054688 368.285156 707.71875 369.527344 706.347656 C 370.765625 704.980469 371.972656 703.578125 373.144531 702.152344 C 374.316406 700.722656 375.453125 699.265625 376.550781 697.78125 C 377.652344 696.296875 378.714844 694.785156 379.738281 693.25 C 380.761719 691.710938 381.75 690.148438 382.699219 688.566406 C 383.648438 686.980469 384.554688 685.371094 385.425781 683.742188 C 386.292969 682.109375 387.121094 680.460938 387.910156 678.789062 C 388.695312 677.117188 389.441406 675.425781 390.148438 673.71875 C 390.851562 672.011719 391.515625 670.285156 392.132812 668.546875 C 392.753906 666.804688 393.328125 665.050781 393.863281 663.28125 C 394.394531 661.511719 394.882812 659.730469 395.328125 657.9375 C 395.773438 656.144531 396.175781 654.34375 396.53125 652.53125 C 396.890625 650.71875 397.199219 648.898438 397.46875 647.070312 C 397.734375 645.242188 397.957031 643.40625 398.132812 641.566406 C 398.308594 639.730469 398.4375 637.886719 398.523438 636.039062 C 398.609375 634.195312 398.652344 632.347656 398.644531 630.5 C 398.640625 628.652344 398.589844 626.808594 398.492188 624.960938 C 398.394531 623.117188 398.253906 621.277344 398.066406 619.4375 C 397.878906 617.601562 397.648438 615.765625 397.371094 613.941406 C 397.09375 612.113281 396.769531 610.296875 396.402344 608.484375 C 396.039062 606.675781 395.625 604.875 395.171875 603.082031 C 394.714844 601.292969 394.214844 599.515625 393.671875 597.75 C 393.128906 595.984375 392.542969 594.230469 391.914062 592.496094 C 391.28125 590.757812 390.609375 589.035156 389.894531 587.332031 C 389.183594 585.628906 388.425781 583.945312 387.628906 582.277344 C 386.832031 580.609375 385.992188 578.964844 385.113281 577.339844 C 384.234375 575.714844 383.316406 574.113281 382.359375 572.53125 C 381.402344 570.953125 380.40625 569.394531 379.375 567.863281 C 378.339844 566.332031 377.269531 564.828125 376.160156 563.351562 C 375.050781 561.871094 373.90625 560.421875 372.726562 559 C 371.546875 557.578125 370.332031 556.1875 369.085938 554.824219 C 367.835938 553.464844 366.554688 552.132812 365.242188 550.832031 L 550.832031 365.242188 C 552.132812 366.554688 553.464844 367.835938 554.824219 369.085938 C 556.1875 370.332031 557.578125 371.546875 559 372.726562 C 560.421875 373.90625 561.871094 375.050781 563.351562 376.160156 C 564.828125 377.265625 566.335938 378.339844 567.863281 379.371094 C 569.394531 380.40625 570.953125 381.402344 572.53125 382.359375 C 574.113281 383.316406 575.714844 384.234375 577.339844 385.113281 C 578.964844 385.992188 580.609375 386.828125 582.277344 387.625 C 583.945312 388.425781 585.628906 389.179688 587.332031 389.894531 C 589.035156 390.609375 590.757812 391.28125 592.496094 391.910156 C 594.230469 392.539062 595.984375 393.125 597.75 393.667969 C 599.515625 394.210938 601.292969 394.710938 603.082031 395.167969 C 604.875 395.625 606.671875 396.035156 608.484375 396.402344 C 610.296875 396.769531 612.113281 397.089844 613.941406 397.367188 C 615.765625 397.644531 617.597656 397.878906 619.4375 398.0625 C 621.273438 398.25 623.117188 398.394531 624.960938 398.488281 C 626.804688 398.585938 628.652344 398.636719 630.5 398.640625 C 632.347656 398.648438 634.195312 398.605469 636.039062 398.519531 C 637.886719 398.4375 639.726562 398.304688 641.566406 398.128906 C 643.40625 397.953125 645.238281 397.730469 647.066406 397.464844 C 648.894531 397.195312 650.714844 396.886719 652.527344 396.527344 C 654.339844 396.171875 656.144531 395.769531 657.9375 395.324219 C 659.730469 394.878906 661.511719 394.390625 663.28125 393.859375 C 665.050781 393.324219 666.804688 392.75 668.542969 392.128906 C 670.285156 391.511719 672.007812 390.847656 673.71875 390.144531 C 675.425781 389.4375 677.113281 388.695312 678.785156 387.90625 C 680.457031 387.117188 682.109375 386.289062 683.738281 385.421875 C 685.367188 384.550781 686.976562 383.644531 688.5625 382.695312 C 690.148438 381.746094 691.707031 380.757812 693.246094 379.734375 C 694.78125 378.710938 696.292969 377.648438 697.777344 376.546875 C 699.261719 375.449219 700.71875 374.3125 702.148438 373.140625 C 703.578125 371.96875 704.976562 370.761719 706.34375 369.523438 C 707.714844 368.28125 709.050781 367.007812 710.359375 365.703125 C 711.664062 364.398438 712.9375 363.058594 714.179688 361.691406 C 715.417969 360.320312 716.625 358.921875 717.796875 357.496094 C 718.96875 356.066406 720.105469 354.609375 721.203125 353.125 C 722.304688 351.640625 723.367188 350.128906 724.394531 348.59375 C 725.417969 347.058594 726.40625 345.496094 727.355469 343.910156 C 728.304688 342.324219 729.210938 340.71875 730.082031 339.085938 C 730.949219 337.457031 731.777344 335.804688 732.566406 334.136719 C 733.355469 332.464844 734.101562 330.773438 734.804688 329.066406 C 735.511719 327.359375 736.171875 325.636719 736.792969 323.894531 C 737.414062 322.15625 737.988281 320.398438 738.523438 318.632812 C 739.058594 316.863281 739.546875 315.082031 739.992188 313.289062 C 740.4375 311.496094 740.839844 309.691406 741.195312 307.878906 C 741.550781 306.066406 741.863281 304.246094 742.132812 302.417969 C 742.398438 300.589844 742.621094 298.757812 742.796875 296.917969 C 742.972656 295.078125 743.105469 293.238281 743.191406 291.390625 C 743.277344 289.546875 743.320312 287.699219 743.3125 285.851562 C 743.308594 284.003906 743.257812 282.160156 743.164062 280.3125 C 743.066406 278.46875 742.925781 276.628906 742.738281 274.789062 C 742.550781 272.949219 742.320312 271.117188 742.042969 269.292969 C 741.765625 267.464844 741.445312 265.648438 741.078125 263.835938 C 740.710938 262.023438 740.300781 260.222656 739.84375 258.433594 C 739.390625 256.644531 738.890625 254.867188 738.347656 253.097656 C 737.804688 251.332031 737.21875 249.582031 736.589844 247.84375 C 735.960938 246.109375 735.289062 244.386719 734.574219 242.683594 C 733.859375 240.980469 733.105469 239.292969 732.308594 237.628906 C 731.511719 235.960938 730.675781 234.3125 729.796875 232.6875 C 728.917969 231.0625 728 229.460938 727.042969 227.878906 C 726.085938 226.300781 725.089844 224.746094 724.058594 223.214844 C 723.023438 221.683594 721.953125 220.175781 720.84375 218.699219 C 719.738281 217.21875 718.59375 215.769531 717.414062 214.347656 C 716.234375 212.925781 715.019531 211.535156 713.773438 210.171875 C 712.527344 208.808594 711.246094 207.476562 709.929688 206.179688 C 707.496094 203.757812 704.957031 201.453125 702.3125 199.265625 C 699.664062 197.074219 696.921875 195.015625 694.085938 193.078125 C 691.25 191.144531 688.332031 189.34375 685.328125 187.675781 C 682.328125 186.011719 679.253906 184.484375 676.113281 183.101562 C 672.96875 181.71875 669.769531 180.480469 666.515625 179.394531 C 663.257812 178.304688 659.957031 177.367188 656.617188 176.582031 C 653.273438 175.796875 649.902344 175.167969 646.5 174.695312 C 643.101562 174.222656 639.683594 173.90625 636.253906 173.746094 Z M 636.253906 173.746094 " fill-opacity="1" fill-rule="nonzero"/></svg>