<svg xmlns="http://www.w3.org/2000/svg" xmlns:xlink="http://www.w3.org/1999/xlink" width="1080" zoomAndPan="magnify" viewBox="0 0 810 809.999993" height="1080" preserveAspectRatio="xMidYMid meet" version="1.0"><path fill="#243c5f" d="M 408.140625 190.804688 L 314.269531 283.996094 L 426.847656 396.578125 L 390.792969 432.628906 L 278.214844 320.050781 L 218.015625 380.25 L 330.59375 492.828125 L 294.542969 528.882812 L 181.960938 416.304688 L 113.9375 484.328125 C 112.597656 485.625 111.316406 486.976562 110.085938 488.378906 C 108.859375 489.78125 107.6875 491.234375 106.578125 492.734375 C 105.472656 494.230469 104.425781 495.773438 103.441406 497.359375 C 102.460938 498.945312 101.542969 500.570312 100.695312 502.230469 C 99.847656 503.890625 99.066406 505.582031 98.359375 507.308594 C 97.648438 509.03125 97.011719 510.785156 96.445312 512.5625 C 95.878906 514.339844 95.386719 516.136719 94.972656 517.953125 C 94.554688 519.773438 94.210938 521.605469 93.945312 523.449219 C 93.675781 525.296875 93.484375 527.148438 93.371094 529.011719 C 93.257812 530.871094 93.21875 532.734375 93.257812 534.601562 C 93.296875 536.464844 93.410156 538.324219 93.605469 540.179688 C 93.796875 542.035156 94.0625 543.878906 94.40625 545.714844 C 94.75 547.546875 95.167969 549.363281 95.660156 551.160156 C 96.152344 552.960938 96.71875 554.738281 97.359375 556.488281 C 97.996094 558.242188 98.707031 559.964844 99.488281 561.65625 C 100.269531 563.351562 101.117188 565.011719 102.035156 566.636719 L 136.046875 630.917969 L 59.519531 708.804688 L 107.476562 756.761719 L 185.363281 680.234375 L 249.644531 714.246094 C 254.828125 717.183594 260.304688 719.402344 266.070312 720.902344 C 271.835938 722.402344 277.699219 723.128906 283.65625 723.089844 C 288.144531 723.09375 292.589844 722.65625 296.992188 721.78125 C 301.394531 720.902344 305.667969 719.605469 309.8125 717.882812 C 313.957031 716.160156 317.890625 714.050781 321.617188 711.546875 C 325.34375 709.046875 328.789062 706.207031 331.953125 703.023438 L 625.476562 408.140625 Z M 673.433594 312.90625 L 612.550781 251.6875 L 660.847656 203.730469 L 708.804688 251.6875 L 756.761719 203.730469 L 612.550781 59.519531 L 564.59375 107.476562 L 612.550781 155.773438 L 564.59375 203.730469 L 503.375 142.847656 L 444.191406 83.328125 L 396.238281 131.625 L 431.269531 166.65625 L 431.269531 166.996094 L 649.285156 385.011719 L 649.625 385.011719 L 684.65625 420.042969 L 732.953125 372.089844 L 673.773438 312.90625 Z M 673.433594 312.90625 " fill-opacity="1" fill-rule="nonzero"/></svg>