<svg xmlns="http://www.w3.org/2000/svg" xmlns:xlink="http://www.w3.org/1999/xlink" width="1080" zoomAndPan="magnify" viewBox="0 0 810 809.999993" height="1080" preserveAspectRatio="xMidYMid meet" version="1.0"><path fill="#243c5f" d="M 733.828125 416.171875 L 430.078125 78.671875 C 417.285156 64.429688 392.714844 64.429688 379.921875 78.671875 L 76.171875 416.171875 C 75.085938 417.375 74.089844 418.652344 73.1875 420.003906 C 72.285156 421.351562 71.484375 422.757812 70.785156 424.222656 C 70.085938 425.6875 69.496094 427.195312 69.015625 428.746094 C 68.535156 430.296875 68.167969 431.875 67.914062 433.476562 C 67.660156 435.082031 67.523438 436.695312 67.503906 438.316406 C 67.484375 439.941406 67.578125 441.554688 67.792969 443.164062 C 68.007812 444.773438 68.335938 446.359375 68.777344 447.921875 C 69.21875 449.484375 69.773438 451.003906 70.4375 452.484375 C 75.835938 464.671875 87.917969 472.5 101.25 472.5 L 168.75 472.5 L 168.75 708.75 C 168.75 709.855469 168.804688 710.957031 168.914062 712.058594 C 169.019531 713.15625 169.183594 714.25 169.398438 715.335938 C 169.613281 716.417969 169.882812 717.488281 170.203125 718.546875 C 170.523438 719.605469 170.894531 720.644531 171.320312 721.664062 C 171.742188 722.6875 172.214844 723.683594 172.734375 724.660156 C 173.257812 725.632812 173.824219 726.582031 174.4375 727.5 C 175.050781 728.417969 175.710938 729.304688 176.410156 730.160156 C 177.113281 731.015625 177.855469 731.832031 178.636719 732.613281 C 179.417969 733.394531 180.234375 734.136719 181.089844 734.839844 C 181.945312 735.539062 182.832031 736.199219 183.75 736.8125 C 184.667969 737.425781 185.617188 737.992188 186.589844 738.515625 C 187.566406 739.035156 188.5625 739.507812 189.585938 739.929688 C 190.605469 740.355469 191.644531 740.726562 192.703125 741.046875 C 193.761719 741.367188 194.832031 741.636719 195.914062 741.851562 C 197 742.066406 198.09375 742.230469 199.191406 742.335938 C 200.292969 742.445312 201.394531 742.5 202.5 742.5 L 607.5 742.5 C 608.605469 742.5 609.707031 742.445312 610.808594 742.335938 C 611.90625 742.230469 613 742.066406 614.085938 741.851562 C 615.167969 741.636719 616.238281 741.367188 617.296875 741.046875 C 618.355469 740.726562 619.394531 740.355469 620.414062 739.929688 C 621.4375 739.507812 622.433594 739.035156 623.410156 738.515625 C 624.382812 737.992188 625.332031 737.425781 626.25 736.8125 C 627.167969 736.199219 628.054688 735.539062 628.910156 734.839844 C 629.765625 734.136719 630.582031 733.394531 631.363281 732.613281 C 632.144531 731.832031 632.886719 731.015625 633.589844 730.160156 C 634.289062 729.304688 634.949219 728.417969 635.5625 727.5 C 636.175781 726.582031 636.742188 725.632812 637.265625 724.660156 C 637.785156 723.683594 638.257812 722.6875 638.679688 721.664062 C 639.105469 720.644531 639.476562 719.605469 639.796875 718.546875 C 640.117188 717.488281 640.386719 716.417969 640.601562 715.335938 C 640.816406 714.25 640.980469 713.15625 641.085938 712.058594 C 641.195312 710.957031 641.25 709.855469 641.25 708.75 L 641.25 472.5 L 708.75 472.5 C 710.375 472.507812 711.992188 472.398438 713.601562 472.167969 C 715.210938 471.941406 716.796875 471.601562 718.355469 471.144531 C 719.917969 470.6875 721.4375 470.121094 722.914062 469.445312 C 724.390625 468.765625 725.8125 467.988281 727.179688 467.105469 C 728.542969 466.222656 729.839844 465.246094 731.0625 464.175781 C 732.285156 463.105469 733.425781 461.953125 734.484375 460.71875 C 735.539062 459.484375 736.503906 458.179688 737.371094 456.804688 C 738.238281 455.429688 739.003906 454 739.664062 452.515625 C 740.324219 451.03125 740.875 449.507812 741.316406 447.941406 C 741.757812 446.378906 742.082031 444.789062 742.292969 443.175781 C 742.503906 441.566406 742.597656 439.945312 742.574219 438.320312 C 742.546875 436.695312 742.40625 435.082031 742.148438 433.476562 C 741.890625 431.871094 741.519531 430.292969 741.035156 428.742188 C 740.546875 427.191406 739.953125 425.683594 739.246094 424.21875 C 738.542969 422.753906 737.734375 421.347656 736.828125 420 C 735.917969 418.648438 734.917969 417.375 733.828125 416.171875 Z M 540 506.25 L 438.75 506.25 L 438.75 607.5 L 371.25 607.5 L 371.25 506.25 L 270 506.25 L 270 438.75 L 371.25 438.75 L 371.25 337.5 L 438.75 337.5 L 438.75 438.75 L 540 438.75 Z M 540 506.25 " fill-opacity="1" fill-rule="nonzero"/></svg>